# xmcd
#
# Track frame offsets:
#	150
#	6720
#	13648
#	20228
#	28342
#	33359
#	40645
#	45202
#	51012
#	56180
#	61784
#	67724
#	74516
#	80661
#	96945
#	109982
#	118574
#	128603
#	138329
#	146353
#	155291
#	163364
#	173164
#	180325
#	188313
#
# Disc length: 2599 seconds
#
# Revision: 0
# Processed by: cddbd v1.5.2PL0 Copyright (c) Steve Scherf et al.
# Submitted via: audiograbber 1.83.01
#
DISCID=4f0a2519
DTITLE=Craig Duncan - Blues Fiddling Classics-Mel Bay
DYEAR=1994
DGENRE=Blues
TTITLE0=The Joe Turner Blues
TTITLE1=Backwater Blues
TTITLE2=Hesitation Blues
TTITLE3=You Don't Know My Mind
TTITLE4=Corinna, Corinna
TTITLE5=The Long-Line Skinner Blues
TTITLE6=White House Blues
TTITLE7=Careless Love
TTITLE8=Worried Man Blues
TTITLE9=Take this Hammer
TTITLE10=Pallet On Your Floor
TTITLE11=One Dime Blues
TTITLE12=Lonesome Road Blues
TTITLE13=Dallas Blues
TTITLE14=The Memphis Blues
TTITLE15=W.C. Handy's Joe Turner Blues
TTITLE16=St Louis Blues
TTITLE17=San Francisco Bay Blues
TTITLE18=St. James Infirmary
TTITLE19=Darlin'
TTITLE20=The Rising Sun Blues
TTITLE21=Stealin'
TTITLE22=Deep River Blues
TTITLE23=House of David Blues
TTITLE24=Brown's Ferry Blues
EXTD=
EXTT0=
EXTT1=
EXTT2=
EXTT3=
EXTT4=
EXTT5=
EXTT6=
EXTT7=
EXTT8=
EXTT9=
EXTT10=
EXTT11=
EXTT12=
EXTT13=
EXTT14=
EXTT15=
EXTT16=
EXTT17=
EXTT18=
EXTT19=
EXTT20=
EXTT21=
EXTT22=
EXTT23=
EXTT24=
PLAYORDER=
